# xmcd
# 
# Track frame offsets:
#   150
#   14560
#   32752
#   48430
#   68310
#   85025
#   104282
#   124404
#   137575
#   161567
#   178220
#   194082
#   207637
#   221605
#   239305
# 
# Disc length: 3366 seconds
# 
# Revision: 3
# Processed by: cddbd v1.5.2PL0 Copyright (c) Steve Scherf et al.
# Submitted via: Synapstar 1.0 
# 
DISCID=db0d240f
DTITLE=Various Artist - The Brick 3 SC 7555
DYEAR=1900
DGENRE=Country
TTITLE0=Johnny Paycheck - Slide Off of Your Satin Sheets
TTITLE1=Eddie Rabbitt - Pour Me Another Tequila
TTITLE2=Bobby Bare - Marie Laveau
TTITLE3=Conway Twitty - The Clown
TTITLE4=Gary Stewart - Drinkin' Thing
TTITLE5=Gene Watson - Farewell Party
TTITLE6=David Allen Coe - Mona Lisa Lost Her Smile
TTITLE7=John Schneider - I've Been Around Enough to Know
TTITLE8=Willie Nelson - City of New Orleans
TTITLE9=Highway 101 - Honky Tonk Heart
TTITLE10=Lacy J. Dalton - 16th Avenue
TTITLE11=Eddie Rabbitt - Hearts on Fire
TTITLE12=George Jones - Tennessee Whiskey
TTITLE13=Dottie West - Are You Happy Baby?
TTITLE14=Jerry Wallace - If You Leave Me Tonight I'll Cry
EXTD=
EXTT0=
EXTT1=
EXTT2=
EXTT3=
EXTT4=
EXTT5=
EXTT6=
EXTT7=
EXTT8=
EXTT9=
EXTT10=
EXTT11=
EXTT12=
EXTT13=
EXTT14=
PLAYORDER=
